<?xml version="1.0" encoding="UTF-8"?>
<svg width="30px" height="18px" viewBox="0 0 30 18" version="1.1" xmlns="http://www.w3.org/2000/svg" xmlns:xlink="http://www.w3.org/1999/xlink">
    <!-- Generator: Sketch 47.1 (45422) - http://www.bohemiancoding.com/sketch -->
    <title>Behance</title>
    <desc>Created with Sketch.</desc>
    <defs></defs>
    <g id="Design" stroke="none" stroke-width="1" fill="none" fill-rule="evenodd">
        <g id="Main-Page-White-(Desktop)" transform="translate(-1292.000000, -925.000000)" fill="#FFFFFF">
            <g id="Footer" transform="translate(-1.000000, 605.000000)">
                <g id="Social" transform="translate(1293.000000, 318.000000)">
                    <path d="M12.110176,10.2159967 C12.110176,10.2159967 14.8061927,9.91269972 14.8061927,6.69251952 C14.8061927,3.4715218 12.6260204,2 9.68343657,2 L4.26707093,2 L4.10810003,2 L0,2 L0,19.9967116 L4.10810003,19.9967116 L4.26707093,19.9967116 L9.68343657,19.9967116 C9.68343657,19.9967116 15.5953697,20.1773818 15.5953697,14.6845179 C15.5953697,14.6845179 15.8524808,10.2159967 12.110176,10.2159967 L12.110176,10.2159967 Z M8.80341909,5.12861885 L9.60395112,5.12861885 C9.60395112,5.12861885 10.9998129,5.19810738 10.9998129,7.07102762 C10.9998129,8.94313036 10.0816749,9.03877927 9.20327957,9.03877927 L4.40170955,9.03877927 L4.40170955,5.12861885 L8.80341909,5.12861885 L8.80341909,5.12861885 Z M9.60395112,16.8591001 L4.40170955,16.8591001 L4.40170955,11.7758098 L9.60395112,11.7758098 C9.60395112,11.7758098 11.6454295,11.9638376 11.6454295,14.4605196 C11.6454295,16.5647958 10.3736623,16.8435674 9.60395112,16.8591001 L9.60395112,16.8591001 Z M23.7921039,6.62466601 C16.8695701,6.69415454 16.8241498,13.5007604 16.8241498,13.5007604 C16.8241498,13.5007604 16.2734292,19.9901715 23.665576,19.9901715 C23.665576,19.9901715 29.9854804,20.4308105 29.9854804,15.4112862 L26.8887921,15.4112862 C26.8887921,15.4112862 26.7833522,17.321812 23.7921039,17.321812 C23.7921039,17.321812 20.6954157,17.5319126 20.6954157,14.2651342 C20.6954157,14.2651342 29.9854804,14.2651342 29.9830471,14.253689 C29.885718,13.8678233 31.059345,6.55190743 23.7921039,6.62466601 L23.7921039,6.62466601 Z M20.6954157,11.9728302 C20.6954157,11.9728302 21.0109242,9.29874813 23.7921039,9.29874813 C26.5724725,9.29874813 26.5019089,11.9728302 26.5019089,11.9728302 L20.6954157,11.9728302 L20.6954157,11.9728302 Z M27.2756754,5.09591836 L19.9208381,5.09591836 L19.9208381,3.18621007 L27.2756754,3.18621007 L27.2756754,5.09591836 L27.2756754,5.09591836 Z" id="Behance"></path>
                </g>
            </g>
        </g>
    </g>
</svg>