<svg xmlns="http://www.w3.org/2000/svg" viewBox="0 0 41 40">
  <path fill="#8BA657" d="M40.984 18.232L39.53 3.884c-.16-1.573-1.448-2.803-3.05-2.912L22.44.018a3.32 3.32 0 0 0-2.522.912L.996 19.075a3.208 3.208 0 0 0-.032 4.616l15.514 15.283a3.327 3.327 0 0 0 4.623.03l18.903-18.127a3.214 3.214 0 0 0 .98-2.645zm-10.845 4.674l-2.37 3.955-4.633-3.139c-.306-.207-.72.025-.693.39l.388 5.526h-4.662l.388-5.526c.026-.365-.387-.597-.693-.39l-4.634 3.139-2.37-3.955 5.168-2.548a.434.434 0 0 0 0-.781l-5.167-2.549 2.37-3.954 4.633 3.138c.306.207.719-.025.693-.39l-.388-5.526h4.662l-.388 5.527c-.026.364.387.597.693.39l4.634-3.14 2.37 3.955-5.96 2.94 5.96 2.938zm3.047-13.163c-1.269 0-2.297-1.014-2.297-2.264 0-1.25 1.028-2.263 2.297-2.263 1.269 0 2.297 1.014 2.297 2.263 0 1.25-1.028 2.264-2.297 2.264z"/>
</svg>
