<?xml version="1.0" encoding="UTF-8"?>
<svg width="22px" height="22px" viewBox="0 0 22 22" version="1.1" xmlns="http://www.w3.org/2000/svg" xmlns:xlink="http://www.w3.org/1999/xlink">
    <!-- Generator: Sketch 47.1 (45422) - http://www.bohemiancoding.com/sketch -->
    <title>dribbble</title>
    <desc>Created with Sketch.</desc>
    <defs></defs>
    <g id="Design" stroke="none" stroke-width="1" fill="none" fill-rule="evenodd">
        <g id="Main-Page-White-(Desktop)" transform="translate(-1350.000000, -923.000000)" fill="#FFFFFF">
            <g id="Footer" transform="translate(-1.000000, 605.000000)">
                <g id="Social" transform="translate(1293.000000, 318.000000)">
                    <path d="M78.5250356,5.47846446 C77.5414329,3.79324288 76.2071087,2.45891867 74.5218871,1.47531604 C72.8363139,0.491713414 70.9962123,0 69.0003516,0 C67.0046667,0 65.1640377,0.491713414 63.4788161,1.47531604 C61.7934187,2.45874287 60.4590945,3.79306708 59.4754918,5.47846446 C58.4917134,7.16386185 58,9.0044909 58,11 C58,12.9956849 58.4918892,14.8359623 59.475316,16.5215355 C60.4589187,18.2065813 61.7932429,19.5410813 63.4786403,20.524684 C65.1640377,21.5082866 67.0044909,22 69.0001758,22 C70.9958607,22 72.8364897,21.5082866 74.5217113,20.524684 C76.2069329,19.5412571 77.5412571,18.2067571 78.5248598,16.5215355 C79.5082866,14.8361381 80,12.9955091 80,11 C80,9.0043151 79.5082866,7.16368605 78.5250356,5.47846446 L78.5250356,5.47846446 Z M69.0001758,1.60417765 C71.3680299,1.60417765 73.4354413,2.38719215 75.2018827,3.95304534 L75.022918,4.20356075 C74.9511914,4.30394272 74.7722268,4.49714724 74.4856723,4.78370171 C74.1992936,5.07008039 73.8865449,5.34239504 73.5476019,5.60011827 C73.2084832,5.85801729 72.7480622,6.15160378 72.16546,6.48105352 C71.5828579,6.81050327 70.9622828,7.09951895 70.3033834,7.34774896 C69.2053347,5.32323281 68.0309888,3.49948059 66.7799939,1.8763165 C67.5345288,1.6948906 68.2744722,1.60417765 69.0001758,1.60417765 L69.0001758,1.60417765 Z M61.6383628,5.17028655 C62.5549855,4.01510284 63.6720206,3.12695977 64.9898196,2.50638475 C66.1738345,4.08190695 67.3386873,5.88667274 68.4845535,7.9205063 C65.5817391,8.68435857 62.6885938,9.0663726 59.8049416,9.0661968 C60.1106583,7.62445862 60.7217401,6.32564607 61.6383628,5.17028655 L61.6383628,5.17028655 Z M60.2344217,14.3876716 C59.814259,13.313356 59.6041777,12.1841908 59.6041777,11 C59.6041777,10.866216 59.6091001,10.7660098 59.6185933,10.6992057 C63.0753544,10.6992057 66.2884563,10.25531 69.2580748,9.3671669 C69.5636157,9.95908648 69.8167682,10.4891244 70.0171805,10.9571047 C69.9786802,10.9760912 69.9171501,10.9975388 69.831008,11.0214476 C69.7448658,11.0453565 69.6828083,11.0618817 69.6444839,11.0715507 L69.1146218,11.257899 C68.7515942,11.3915072 68.276406,11.620575 67.6894088,11.9452782 C67.1022359,12.2701571 66.4791996,12.6567419 65.8203001,13.1055601 C65.1614006,13.554554 64.4810535,14.1489348 63.7792588,14.889054 C63.077464,15.6289975 62.4878298,16.4237906 62.0103562,17.2736092 C61.246504,16.4237906 60.6545844,15.4616356 60.2344217,14.3876716 L60.2344217,14.3876716 Z M69.0001758,20.3959981 C66.7657541,20.3959981 64.7700692,19.6797878 63.0131211,18.2475428 L63.227949,18.4050599 C63.5621454,17.6696872 64.0538588,16.9631459 64.7032651,16.2852599 C65.3526714,15.607374 65.977993,15.0604593 66.5795816,14.6450432 C67.1811702,14.2298029 67.8351473,13.8384715 68.5418644,13.4705215 C69.2484058,13.1029231 69.7304502,12.8689329 69.9883492,12.7689025 C70.2462483,12.6685206 70.451583,12.5895862 70.6043535,12.5324511 L70.6330089,12.5180355 L70.6616643,12.5180355 C71.5972735,14.9720318 72.265842,17.3497307 72.6668425,19.6509565 C71.4828275,20.1475923 70.2606639,20.3958223 69.0001758,20.3959981 L69.0001758,20.3959981 Z M76.9067939,16.0776398 C76.2000767,17.1709418 75.3166803,18.0757859 74.2571319,18.7918205 C73.865273,16.5957233 73.2545428,14.3563792 72.4235349,12.0743156 C74.3237602,11.7780921 76.276374,11.9166227 78.2815522,12.4893801 C78.0714708,13.7880168 77.6131595,14.984162 76.9067939,16.0776398 L76.9067939,16.0776398 Z M78.2527209,10.8711384 C78.1572614,10.852152 78.037893,10.8305285 77.8946157,10.8067955 C77.7515143,10.7830624 77.5771204,10.7542312 77.3717857,10.7208291 C77.1666267,10.6874271 76.9372073,10.6564862 76.6842307,10.6278308 C76.4312541,10.5991753 76.1615764,10.5729811 75.8748462,10.5490723 C75.5884675,10.5251634 75.2829266,10.506177 74.9583993,10.4917614 C74.6333445,10.4775215 74.3040706,10.4703137 73.9698742,10.4703137 C73.6358537,10.4703137 73.2847805,10.4799827 72.9173579,10.4989692 C72.5497595,10.5177798 72.1941155,10.5515335 71.8504259,10.5991753 C71.8215947,10.5513577 71.7859072,10.4725991 71.7430119,10.3627239 C71.7001167,10.2530246 71.6688242,10.1693436 71.6501894,10.1120327 C71.4685877,9.71103227 71.2585063,9.25746752 71.0195937,8.75151428 C71.6784932,8.48394624 72.3064519,8.17611993 72.9034697,7.82750795 C73.5001358,7.47889597 73.9772578,7.16878426 74.3355388,6.89664541 C74.693644,6.62433076 75.032587,6.33549088 75.3525435,6.02994998 C75.6723242,5.72440907 75.8799444,5.51204232 75.9755797,5.39267392 C76.0712151,5.27312972 76.161928,5.15622253 76.2477186,5.04177654 L76.2621342,5.02736092 C77.6562305,6.72699813 78.3678701,8.68435857 78.3961739,10.8997938 L78.2527209,10.8711384 L78.2527209,10.8711384 Z" id="dribbble"></path>
                </g>
            </g>
        </g>
    </g>
</svg>