<?xml version="1.0" encoding="UTF-8"?>
<svg width="24px" height="18px" viewBox="0 0 24 18" version="1.1" xmlns="http://www.w3.org/2000/svg" xmlns:xlink="http://www.w3.org/1999/xlink">
    <!-- Generator: Sketch 47.1 (45422) - http://www.bohemiancoding.com/sketch -->
    <title>Combined Shape</title>
    <desc>Created with Sketch.</desc>
    <defs></defs>
    <g id="Design" stroke="none" stroke-width="1" fill="none" fill-rule="evenodd">
        <g id="Main-Page-White-(Desktop)" transform="translate(-1506.000000, -925.000000)" fill="#FFFFFF">
            <g id="Footer" transform="translate(-1.000000, 605.000000)">
                <g id="Social" transform="translate(1293.000000, 318.000000)">
                    <path d="M216.303507,7.54840734 C215.750027,7.19049113 215.227616,6.69825828 214.736603,6.07186568 C214.245589,5.44547309 214,4.8636435 214,4.32669073 C214,3.66201161 214.18526,3.10795544 214.555781,2.66467912 C214.926301,2.22155971 215.455288,2 216.14274,2 L235.857096,2 C236.437205,2 236.939562,2.20021968 237.363671,2.60081594 C237.787781,3.00141221 238,3.48297505 238,4.04550447 C238,4.71881375 237.78137,5.36230974 237.343616,5.97567864 C236.906027,6.58936137 236.361589,7.11360427 235.709808,7.54809352 C232.352767,9.77263455 230.263288,11.1575396 229.442027,11.7029656 C229.352767,11.7627491 229.162904,11.8925153 228.872767,12.0928919 C228.58263,12.2932685 228.341644,12.4553585 228.149644,12.5788483 C227.957644,12.702338 227.725534,12.8407343 227.453315,12.9941943 C227.181096,13.1473403 226.924164,13.2626706 226.683178,13.3390868 C226.442027,13.4159736 226.218795,13.4541032 226.013479,13.4541032 L226,13.4541032 L225.986521,13.4541032 C225.781205,13.4541032 225.557973,13.4159736 225.316822,13.3390868 C225.075836,13.2626706 224.819068,13.1474973 224.546685,12.9941943 C224.274301,12.8408913 224.042192,12.702338 223.850192,12.5788483 C223.658356,12.4553585 223.417205,12.2932685 223.127068,12.0928919 C222.836932,11.8926722 222.647233,11.7627491 222.557973,11.7029656 C221.745425,11.1576965 220.575836,10.3800408 219.049041,9.37015534 C217.522247,8.36026989 216.607123,7.75286364 216.303507,7.54840734 Z M236.660603,8.91620901 C237.169699,8.58386945 237.616,8.21292955 238,7.80401695 L238,17.9543386 C238,18.5170249 237.790411,18.998274 237.370575,19.3990271 C236.950904,19.7997803 236.446411,20 235.85726,20 L216.142904,20 C215.553589,20 215.049096,19.7997803 214.629425,19.3990271 C214.209753,18.9984309 214,18.5170249 214,17.9543386 L214,7.80401695 C214.392877,8.22155971 214.843781,8.59249961 215.352712,8.91620901 C218.584822,11.0127099 220.803507,12.4829751 222.008932,13.3266907 C222.517863,13.6846069 222.930795,13.9639102 223.247726,14.163973 C223.564658,14.3643496 223.98663,14.5688059 224.513315,14.7776557 C225.04,14.9865056 225.531178,15.090852 225.986521,15.090852 L226,15.090852 L226.013644,15.090852 C226.468986,15.090852 226.96,14.9865056 227.486685,14.7776557 C228.013534,14.5688059 228.435342,14.3643496 228.752274,14.163973 C229.06937,13.9639102 229.482301,13.6846069 229.991233,13.3266907 C231.508822,12.2783618 233.732274,10.8080967 236.660603,8.91620901 Z" id="Combined-Shape"></path>
                </g>
            </g>
        </g>
    </g>
</svg>