<svg xmlns="http://www.w3.org/2000/svg" xmlns:xlink="http://www.w3.org/1999/xlink" viewBox="0 0 38 38">
  <defs>
    <path id="a" d="M4.723 5.012H31.26c.58 1.068 1.76 1.807 3.113 1.807 1.932 0 3.5-1.499 3.5-3.348 0-1.848-1.568-3.348-3.522-3.348-1.46 0-2.726.863-3.242 2.095H4.723C2.168 2.218.15 4.088.15 6.45v27.03c0 2.403 2.104 4.457 4.573 4.457h28.232c2.49 0 4.508-1.992 4.508-4.457V17.46c0-2.403-2.018-4.375-4.508-4.375H16.209c-2.555 0-4.723 2.013-4.723 4.375v5.033c0 2.342 2.125 4.231 4.723 4.231h5.84c.515 1.233 1.782 2.095 3.241 2.095 1.933 0 3.5-1.5 3.5-3.348 0-1.848-1.567-3.348-3.5-3.348-1.352 0-2.533.74-3.113 1.808H16.21c-.859 0-1.782-.555-1.782-1.438V17.44c0-.822.859-1.582 1.782-1.582h16.746c.88 0 1.589.699 1.589 1.582v16.02c0 .883-.73 1.643-1.59 1.643H4.725c-.881 0-1.654-.78-1.654-1.643V6.45c0-.801.709-1.438 1.653-1.438zM34.35 1.869c.923 0 1.675.72 1.675 1.602 0 .884-.752 1.603-1.675 1.603s-1.674-.72-1.674-1.603.751-1.602 1.674-1.602zm-9.038 22c.923 0 1.674.718 1.674 1.601 0 .884-.751 1.602-1.674 1.602-.923 0-1.675-.718-1.675-1.602 0-.904.752-1.602 1.675-1.602z"/>
    <path id="c" d="M4.723 5.012H31.26c.58 1.068 1.76 1.807 3.113 1.807 1.932 0 3.5-1.499 3.5-3.348 0-1.848-1.568-3.348-3.522-3.348-1.46 0-2.726.863-3.242 2.095H4.723C2.168 2.218.15 4.088.15 6.45v27.03c0 2.403 2.104 4.457 4.573 4.457h28.232c2.49 0 4.508-1.992 4.508-4.457V17.46c0-2.403-2.018-4.375-4.508-4.375H16.209c-2.555 0-4.723 2.013-4.723 4.375v5.033c0 2.342 2.125 4.231 4.723 4.231h5.84c.515 1.233 1.782 2.095 3.241 2.095 1.933 0 3.5-1.5 3.5-3.348 0-1.848-1.567-3.348-3.5-3.348-1.352 0-2.533.74-3.113 1.808H16.21c-.859 0-1.782-.555-1.782-1.438V17.44c0-.822.859-1.582 1.782-1.582h16.746c.88 0 1.589.699 1.589 1.582v16.02c0 .883-.73 1.643-1.59 1.643H4.725c-.881 0-1.654-.78-1.654-1.643V6.45c0-.801.709-1.438 1.653-1.438zM34.35 1.869c.923 0 1.675.72 1.675 1.602 0 .884-.752 1.603-1.675 1.603s-1.674-.72-1.674-1.603.751-1.602 1.674-1.602zm-9.038 22c.923 0 1.674.718 1.674 1.601 0 .884-.751 1.602-1.674 1.602-.923 0-1.675-.718-1.675-1.602 0-.904.752-1.602 1.675-1.602z"/>
    <path id="e" d="M4.723 5.012H31.26c.58 1.068 1.76 1.807 3.113 1.807 1.932 0 3.5-1.499 3.5-3.348 0-1.848-1.568-3.348-3.522-3.348-1.46 0-2.726.863-3.242 2.095H4.723C2.168 2.218.15 4.088.15 6.45v27.03c0 2.403 2.104 4.457 4.573 4.457h28.232c2.49 0 4.508-1.992 4.508-4.457V17.46c0-2.403-2.018-4.375-4.508-4.375H16.209c-2.555 0-4.723 2.013-4.723 4.375v5.033c0 2.342 2.125 4.231 4.723 4.231h5.84c.515 1.233 1.782 2.095 3.241 2.095 1.933 0 3.5-1.5 3.5-3.348 0-1.848-1.567-3.348-3.5-3.348-1.352 0-2.533.74-3.113 1.808H16.21c-.859 0-1.782-.555-1.782-1.438V17.44c0-.822.859-1.582 1.782-1.582h16.746c.88 0 1.589.699 1.589 1.582v16.02c0 .883-.73 1.643-1.59 1.643H4.725c-.881 0-1.654-.78-1.654-1.643V6.45c0-.801.709-1.438 1.653-1.438zM34.35 1.869c.923 0 1.675.72 1.675 1.602 0 .884-.752 1.603-1.675 1.603s-1.674-.72-1.674-1.603.751-1.602 1.674-1.602zm-9.038 22c.923 0 1.674.718 1.674 1.601 0 .884-.751 1.602-1.674 1.602-.923 0-1.675-.718-1.675-1.602 0-.904.752-1.602 1.675-1.602z"/>
    <path id="g" d="M4.723 5.012H31.26c.58 1.068 1.76 1.807 3.113 1.807 1.932 0 3.5-1.499 3.5-3.348 0-1.848-1.568-3.348-3.522-3.348-1.46 0-2.726.863-3.242 2.095H4.723C2.168 2.218.15 4.088.15 6.45v27.03c0 2.403 2.104 4.457 4.573 4.457h28.232c2.49 0 4.508-1.992 4.508-4.457V17.46c0-2.403-2.018-4.375-4.508-4.375H16.209c-2.555 0-4.723 2.013-4.723 4.375v5.033c0 2.342 2.125 4.231 4.723 4.231h5.84c.515 1.233 1.782 2.095 3.241 2.095 1.933 0 3.5-1.5 3.5-3.348 0-1.848-1.567-3.348-3.5-3.348-1.352 0-2.533.74-3.113 1.808H16.21c-.859 0-1.782-.555-1.782-1.438V17.44c0-.822.859-1.582 1.782-1.582h16.746c.88 0 1.589.699 1.589 1.582v16.02c0 .883-.73 1.643-1.59 1.643H4.725c-.881 0-1.654-.78-1.654-1.643V6.45c0-.801.709-1.438 1.653-1.438zM34.35 1.869c.923 0 1.675.72 1.675 1.602 0 .884-.752 1.603-1.675 1.603s-1.674-.72-1.674-1.603.751-1.602 1.674-1.602zm-9.038 22c.923 0 1.674.718 1.674 1.601 0 .884-.751 1.602-1.674 1.602-.923 0-1.675-.718-1.675-1.602 0-.904.752-1.602 1.675-1.602z"/>
    <path id="i" d="M4.723 5.012H31.26c.58 1.068 1.76 1.807 3.113 1.807 1.932 0 3.5-1.499 3.5-3.348 0-1.848-1.568-3.348-3.522-3.348-1.46 0-2.726.863-3.242 2.095H4.723C2.168 2.218.15 4.088.15 6.45v27.03c0 2.403 2.104 4.457 4.573 4.457h28.232c2.49 0 4.508-1.992 4.508-4.457V17.46c0-2.403-2.018-4.375-4.508-4.375H16.209c-2.555 0-4.723 2.013-4.723 4.375v5.033c0 2.342 2.125 4.231 4.723 4.231h5.84c.515 1.233 1.782 2.095 3.241 2.095 1.933 0 3.5-1.5 3.5-3.348 0-1.848-1.567-3.348-3.5-3.348-1.352 0-2.533.74-3.113 1.808H16.21c-.859 0-1.782-.555-1.782-1.438V17.44c0-.822.859-1.582 1.782-1.582h16.746c.88 0 1.589.699 1.589 1.582v16.02c0 .883-.73 1.643-1.59 1.643H4.725c-.881 0-1.654-.78-1.654-1.643V6.45c0-.801.709-1.438 1.653-1.438zM34.35 1.869c.923 0 1.675.72 1.675 1.602 0 .884-.752 1.603-1.675 1.603s-1.674-.72-1.674-1.603.751-1.602 1.674-1.602zm-9.038 22c.923 0 1.674.718 1.674 1.601 0 .884-.751 1.602-1.674 1.602-.923 0-1.675-.718-1.675-1.602 0-.904.752-1.602 1.675-1.602z"/>
    <path id="k" d="M4.723 5.012H31.26c.58 1.068 1.76 1.807 3.113 1.807 1.932 0 3.5-1.499 3.5-3.348 0-1.848-1.568-3.348-3.522-3.348-1.46 0-2.726.863-3.242 2.095H4.723C2.168 2.218.15 4.088.15 6.45v27.03c0 2.403 2.104 4.457 4.573 4.457h28.232c2.49 0 4.508-1.992 4.508-4.457V17.46c0-2.403-2.018-4.375-4.508-4.375H16.209c-2.555 0-4.723 2.013-4.723 4.375v5.033c0 2.342 2.125 4.231 4.723 4.231h5.84c.515 1.233 1.782 2.095 3.241 2.095 1.933 0 3.5-1.5 3.5-3.348 0-1.848-1.567-3.348-3.5-3.348-1.352 0-2.533.74-3.113 1.808H16.21c-.859 0-1.782-.555-1.782-1.438V17.44c0-.822.859-1.582 1.782-1.582h16.746c.88 0 1.589.699 1.589 1.582v16.02c0 .883-.73 1.643-1.59 1.643H4.725c-.881 0-1.654-.78-1.654-1.643V6.45c0-.801.709-1.438 1.653-1.438zM34.35 1.869c.923 0 1.675.72 1.675 1.602 0 .884-.752 1.603-1.675 1.603s-1.674-.72-1.674-1.603.751-1.602 1.674-1.602zm-9.038 22c.923 0 1.674.718 1.674 1.601 0 .884-.751 1.602-1.674 1.602-.923 0-1.675-.718-1.675-1.602 0-.904.752-1.602 1.675-1.602z"/>
    <path id="m" d="M4.723 5.012H31.26c.58 1.068 1.76 1.807 3.113 1.807 1.932 0 3.5-1.499 3.5-3.348 0-1.848-1.568-3.348-3.522-3.348-1.46 0-2.726.863-3.242 2.095H4.723C2.168 2.218.15 4.088.15 6.45v27.03c0 2.403 2.104 4.457 4.573 4.457h28.232c2.49 0 4.508-1.992 4.508-4.457V17.46c0-2.403-2.018-4.375-4.508-4.375H16.209c-2.555 0-4.723 2.013-4.723 4.375v5.033c0 2.342 2.125 4.231 4.723 4.231h5.84c.515 1.233 1.782 2.095 3.241 2.095 1.933 0 3.5-1.5 3.5-3.348 0-1.848-1.567-3.348-3.5-3.348-1.352 0-2.533.74-3.113 1.808H16.21c-.859 0-1.782-.555-1.782-1.438V17.44c0-.822.859-1.582 1.782-1.582h16.746c.88 0 1.589.699 1.589 1.582v16.02c0 .883-.73 1.643-1.59 1.643H4.725c-.881 0-1.654-.78-1.654-1.643V6.45c0-.801.709-1.438 1.653-1.438zM34.35 1.869c.923 0 1.675.72 1.675 1.602 0 .884-.752 1.603-1.675 1.603s-1.674-.72-1.674-1.603.751-1.602 1.674-1.602zm-9.038 22c.923 0 1.674.718 1.674 1.601 0 .884-.751 1.602-1.674 1.602-.923 0-1.675-.718-1.675-1.602 0-.904.752-1.602 1.675-1.602z"/>
    <linearGradient id="n" x1="49.858%" x2="49.858%" y1="98.597%" y2="2.856%">
      <stop offset="0%" stop-color="#0A968E"/>
      <stop offset="100%" stop-color="#3EB8BC"/>
    </linearGradient>
    <path id="p" d="M4.723 5.012H31.26c.58 1.068 1.76 1.807 3.113 1.807 1.932 0 3.5-1.499 3.5-3.348 0-1.848-1.568-3.348-3.522-3.348-1.46 0-2.726.863-3.242 2.095H4.723C2.168 2.218.15 4.088.15 6.45v27.03c0 2.403 2.104 4.457 4.573 4.457h28.232c2.49 0 4.508-1.992 4.508-4.457V17.46c0-2.403-2.018-4.375-4.508-4.375H16.209c-2.555 0-4.723 2.013-4.723 4.375v5.033c0 2.342 2.125 4.231 4.723 4.231h5.84c.515 1.233 1.782 2.095 3.241 2.095 1.933 0 3.5-1.5 3.5-3.348 0-1.848-1.567-3.348-3.5-3.348-1.352 0-2.533.74-3.113 1.808H16.21c-.859 0-1.782-.555-1.782-1.438V17.44c0-.822.859-1.582 1.782-1.582h16.746c.88 0 1.589.699 1.589 1.582v16.02c0 .883-.73 1.643-1.59 1.643H4.725c-.881 0-1.654-.78-1.654-1.643V6.45c0-.801.709-1.438 1.653-1.438zM34.35 1.869c.923 0 1.675.72 1.675 1.602 0 .884-.752 1.603-1.675 1.603s-1.674-.72-1.674-1.603.751-1.602 1.674-1.602zm-9.038 22c.923 0 1.674.718 1.674 1.601 0 .884-.751 1.602-1.674 1.602-.923 0-1.675-.718-1.675-1.602 0-.904.752-1.602 1.675-1.602z"/>
    <linearGradient id="q" x1=".033%" x2="100.025%" y1="49.811%" y2="49.811%">
      <stop offset="0%" stop-color="#0A968E"/>
      <stop offset="100%" stop-color="#EB5B28"/>
    </linearGradient>
    <path id="s" d="M4.723 5.012H31.26c.58 1.068 1.76 1.807 3.113 1.807 1.932 0 3.5-1.499 3.5-3.348 0-1.848-1.568-3.348-3.522-3.348-1.46 0-2.726.863-3.242 2.095H4.723C2.168 2.218.15 4.088.15 6.45v27.03c0 2.403 2.104 4.457 4.573 4.457h28.232c2.49 0 4.508-1.992 4.508-4.457V17.46c0-2.403-2.018-4.375-4.508-4.375H16.209c-2.555 0-4.723 2.013-4.723 4.375v5.033c0 2.342 2.125 4.231 4.723 4.231h5.84c.515 1.233 1.782 2.095 3.241 2.095 1.933 0 3.5-1.5 3.5-3.348 0-1.848-1.567-3.348-3.5-3.348-1.352 0-2.533.74-3.113 1.808H16.21c-.859 0-1.782-.555-1.782-1.438V17.44c0-.822.859-1.582 1.782-1.582h16.746c.88 0 1.589.699 1.589 1.582v16.02c0 .883-.73 1.643-1.59 1.643H4.725c-.881 0-1.654-.78-1.654-1.643V6.45c0-.801.709-1.438 1.653-1.438zM34.35 1.869c.923 0 1.675.72 1.675 1.602 0 .884-.752 1.603-1.675 1.603s-1.674-.72-1.674-1.603.751-1.602 1.674-1.602zm-9.038 22c.923 0 1.674.718 1.674 1.601 0 .884-.751 1.602-1.674 1.602-.923 0-1.675-.718-1.675-1.602 0-.904.752-1.602 1.675-1.602z"/>
    <linearGradient id="t" x1="50.052%" x2="50.052%" y1=".453%" y2="99.097%">
      <stop offset="0%" stop-color="#C22C2E"/>
      <stop offset="100%" stop-color="#EB5B28"/>
    </linearGradient>
    <path id="v" d="M4.723 5.012H31.26c.58 1.068 1.76 1.807 3.113 1.807 1.932 0 3.5-1.499 3.5-3.348 0-1.848-1.568-3.348-3.522-3.348-1.46 0-2.726.863-3.242 2.095H4.723C2.168 2.218.15 4.088.15 6.45v27.03c0 2.403 2.104 4.457 4.573 4.457h28.232c2.49 0 4.508-1.992 4.508-4.457V17.46c0-2.403-2.018-4.375-4.508-4.375H16.209c-2.555 0-4.723 2.013-4.723 4.375v5.033c0 2.342 2.125 4.231 4.723 4.231h5.84c.515 1.233 1.782 2.095 3.241 2.095 1.933 0 3.5-1.5 3.5-3.348 0-1.848-1.567-3.348-3.5-3.348-1.352 0-2.533.74-3.113 1.808H16.21c-.859 0-1.782-.555-1.782-1.438V17.44c0-.822.859-1.582 1.782-1.582h16.746c.88 0 1.589.699 1.589 1.582v16.02c0 .883-.73 1.643-1.59 1.643H4.725c-.881 0-1.654-.78-1.654-1.643V6.45c0-.801.709-1.438 1.653-1.438zM34.35 1.869c.923 0 1.675.72 1.675 1.602 0 .884-.752 1.603-1.675 1.603s-1.674-.72-1.674-1.603.751-1.602 1.674-1.602zm-9.038 22c.923 0 1.674.718 1.674 1.601 0 .884-.751 1.602-1.674 1.602-.923 0-1.675-.718-1.675-1.602 0-.904.752-1.602 1.675-1.602z"/>
    <linearGradient id="w" x1="98.567%" x2="1.853%" y1="49.853%" y2="49.853%">
      <stop offset="0%" stop-color="#C22C2E"/>
      <stop offset="100%" stop-color="#CA4C30"/>
    </linearGradient>
    <path id="y" d="M4.723 5.012H31.26c.58 1.068 1.76 1.807 3.113 1.807 1.932 0 3.5-1.499 3.5-3.348 0-1.848-1.568-3.348-3.522-3.348-1.46 0-2.726.863-3.242 2.095H4.723C2.168 2.218.15 4.088.15 6.45v27.03c0 2.403 2.104 4.457 4.573 4.457h28.232c2.49 0 4.508-1.992 4.508-4.457V17.46c0-2.403-2.018-4.375-4.508-4.375H16.209c-2.555 0-4.723 2.013-4.723 4.375v5.033c0 2.342 2.125 4.231 4.723 4.231h5.84c.515 1.233 1.782 2.095 3.241 2.095 1.933 0 3.5-1.5 3.5-3.348 0-1.848-1.567-3.348-3.5-3.348-1.352 0-2.533.74-3.113 1.808H16.21c-.859 0-1.782-.555-1.782-1.438V17.44c0-.822.859-1.582 1.782-1.582h16.746c.88 0 1.589.699 1.589 1.582v16.02c0 .883-.73 1.643-1.59 1.643H4.725c-.881 0-1.654-.78-1.654-1.643V6.45c0-.801.709-1.438 1.653-1.438zM34.35 1.869c.923 0 1.675.72 1.675 1.602 0 .884-.752 1.603-1.675 1.603s-1.674-.72-1.674-1.603.751-1.602 1.674-1.602zm-9.038 22c.923 0 1.674.718 1.674 1.601 0 .884-.751 1.602-1.674 1.602-.923 0-1.675-.718-1.675-1.602 0-.904.752-1.602 1.675-1.602z"/>
    <linearGradient id="z" x1="50.111%" x2="50.111%" y1="2.453%" y2="96.878%">
      <stop offset="0%" stop-color="#CA4C30"/>
      <stop offset="100%" stop-color="#E94E1B"/>
    </linearGradient>
    <path id="B" d="M4.723 5.012H31.26c.58 1.068 1.76 1.807 3.113 1.807 1.932 0 3.5-1.499 3.5-3.348 0-1.848-1.568-3.348-3.522-3.348-1.46 0-2.726.863-3.242 2.095H4.723C2.168 2.218.15 4.088.15 6.45v27.03c0 2.403 2.104 4.457 4.573 4.457h28.232c2.49 0 4.508-1.992 4.508-4.457V17.46c0-2.403-2.018-4.375-4.508-4.375H16.209c-2.555 0-4.723 2.013-4.723 4.375v5.033c0 2.342 2.125 4.231 4.723 4.231h5.84c.515 1.233 1.782 2.095 3.241 2.095 1.933 0 3.5-1.5 3.5-3.348 0-1.848-1.567-3.348-3.5-3.348-1.352 0-2.533.74-3.113 1.808H16.21c-.859 0-1.782-.555-1.782-1.438V17.44c0-.822.859-1.582 1.782-1.582h16.746c.88 0 1.589.699 1.589 1.582v16.02c0 .883-.73 1.643-1.59 1.643H4.725c-.881 0-1.654-.78-1.654-1.643V6.45c0-.801.709-1.438 1.653-1.438zM34.35 1.869c.923 0 1.675.72 1.675 1.602 0 .884-.752 1.603-1.675 1.603s-1.674-.72-1.674-1.603.751-1.602 1.674-1.602zm-9.038 22c.923 0 1.674.718 1.674 1.601 0 .884-.751 1.602-1.674 1.602-.923 0-1.675-.718-1.675-1.602 0-.904.752-1.602 1.675-1.602z"/>
    <linearGradient id="C" x1="99.996%" x2="1.705%" y1="50.048%" y2="50.048%">
      <stop offset="0%" stop-color="#0D77BA"/>
      <stop offset="100%" stop-color="#3EB8BC"/>
    </linearGradient>
    <path id="E" d="M4.723 5.012H31.26c.58 1.068 1.76 1.807 3.113 1.807 1.932 0 3.5-1.499 3.5-3.348 0-1.848-1.568-3.348-3.522-3.348-1.46 0-2.726.863-3.242 2.095H4.723C2.168 2.218.15 4.088.15 6.45v27.03c0 2.403 2.104 4.457 4.573 4.457h28.232c2.49 0 4.508-1.992 4.508-4.457V17.46c0-2.403-2.018-4.375-4.508-4.375H16.209c-2.555 0-4.723 2.013-4.723 4.375v5.033c0 2.342 2.125 4.231 4.723 4.231h5.84c.515 1.233 1.782 2.095 3.241 2.095 1.933 0 3.5-1.5 3.5-3.348 0-1.848-1.567-3.348-3.5-3.348-1.352 0-2.533.74-3.113 1.808H16.21c-.859 0-1.782-.555-1.782-1.438V17.44c0-.822.859-1.582 1.782-1.582h16.746c.88 0 1.589.699 1.589 1.582v16.02c0 .883-.73 1.643-1.59 1.643H4.725c-.881 0-1.654-.78-1.654-1.643V6.45c0-.801.709-1.438 1.653-1.438zM34.35 1.869c.923 0 1.675.72 1.675 1.602 0 .884-.752 1.603-1.675 1.603s-1.674-.72-1.674-1.603.751-1.602 1.674-1.602zm-9.038 22c.923 0 1.674.718 1.674 1.601 0 .884-.751 1.602-1.674 1.602-.923 0-1.675-.718-1.675-1.602 0-.904.752-1.602 1.675-1.602z"/>
    <linearGradient id="F" x1=".015%" x2="100.074%" y1="50.01%" y2="50.01%">
      <stop offset="0%" stop-color="#E94E1B"/>
      <stop offset="100%" stop-color="#F8AE3B"/>
    </linearGradient>
  </defs>
  <g fill="none" fill-rule="evenodd">
    <mask id="b" fill="#fff">
      <use xlink:href="#a"/>
    </mask>
    <path fill="#3EB8BC" fill-rule="nonzero" d="M-.988.904h5.603v5.71H-.988z" mask="url(#b)"/>
    <mask id="d" fill="#fff">
      <use xlink:href="#c"/>
    </mask>
    <path fill="#0A968E" fill-rule="nonzero" d="M-.988 33.358h5.603v5.71H-.988z" mask="url(#d)"/>
    <mask id="f" fill="#fff">
      <use xlink:href="#e"/>
    </mask>
    <path fill="#EB5B28" fill-rule="nonzero" d="M32.847 33.358h5.603v5.71h-5.603z" mask="url(#f)"/>
    <mask id="h" fill="#fff">
      <use xlink:href="#g"/>
    </mask>
    <path fill="#C22C2E" fill-rule="nonzero" d="M32.847 11.852h5.603v5.71h-5.603z" mask="url(#h)"/>
    <mask id="j" fill="#fff">
      <use xlink:href="#i"/>
    </mask>
    <path fill="#CA4C30" fill-rule="nonzero" d="M10.713 11.852h5.603v5.71h-5.603z" mask="url(#j)"/>
    <mask id="l" fill="#fff">
      <use xlink:href="#k"/>
    </mask>
    <path fill="#E94E1B" fill-rule="nonzero" d="M10.713 22.369h5.603v5.71h-5.603z" mask="url(#l)"/>
    <mask id="o" fill="#fff">
      <use xlink:href="#m"/>
    </mask>
    <path fill="url(#n)" fill-rule="nonzero" d="M-.988 6.511h5.496v26.97H-.988z" mask="url(#o)"/>
    <mask id="r" fill="#fff">
      <use xlink:href="#p"/>
    </mask>
    <path fill="url(#q)" fill-rule="nonzero" d="M4.487 33.481h28.468v5.608H4.487z" mask="url(#r)"/>
    <mask id="u" fill="#fff">
      <use xlink:href="#s"/>
    </mask>
    <path fill="url(#t)" fill-rule="nonzero" d="M32.955 17.439h5.496v16.022h-5.496z" mask="url(#u)"/>
    <mask id="x" fill="#fff">
      <use xlink:href="#v"/>
    </mask>
    <path fill="url(#w)" fill-rule="nonzero" d="M16.209 11.852h16.746v5.608H16.209z" mask="url(#x)"/>
    <mask id="A" fill="#fff">
      <use xlink:href="#y"/>
    </mask>
    <path fill="url(#z)" fill-rule="nonzero" d="M10.713 17.439h5.496v5.032h-5.496z" mask="url(#A)"/>
    <mask id="D" fill="#fff">
      <use xlink:href="#B"/>
    </mask>
    <path fill="url(#C)" fill-rule="nonzero" d="M30.185-.267V.904H4.487v5.607h25.698v1.151h8.266V-.267z" mask="url(#D)"/>
    <mask id="G" fill="#fff">
      <use xlink:href="#E"/>
    </mask>
    <path fill="url(#F)" fill-rule="nonzero" d="M21.233 21.526v.966h-5.024v5.587h5.024v1.315h8.222v-7.868z" mask="url(#G)"/>
  </g>
</svg>
