<?xml version="1.0" encoding="UTF-8"?>
<svg width="22px" height="22px" viewBox="0 0 22 22" version="1.1" xmlns="http://www.w3.org/2000/svg" xmlns:xlink="http://www.w3.org/1999/xlink">
    <!-- Generator: Sketch 47.1 (45422) - http://www.bohemiancoding.com/sketch -->
    <title>instagram</title>
    <desc>Created with Sketch.</desc>
    <defs></defs>
    <g id="Design" stroke="none" stroke-width="1" fill="none" fill-rule="evenodd">
        <g id="Main-Page-White-(Desktop)" transform="translate(-1400.000000, -923.000000)" fill-rule="nonzero" fill="#FFFFFF">
            <g id="Footer" transform="translate(-1.000000, 605.000000)">
                <g id="Social" transform="translate(1293.000000, 318.000000)">
                    <path d="M123.928665,0 L114.071075,0 C110.723486,0 108,2.72361619 108,6.07120465 L108,15.9287954 C108,19.2765139 110.723486,22 114.071075,22 L123.928665,22 C127.276514,22 130,19.2763838 130,15.9287954 L130,6.07120465 C130.00013,2.72361619 127.276514,0 123.928665,0 Z M128.048184,15.9287954 C128.048184,18.2002106 126.200211,20.0480534 123.928795,20.0480534 L114.071075,20.0480534 C111.799789,20.0481835 109.951947,18.2002106 109.951947,15.9287954 L109.951947,6.07120465 C109.951947,3.79991956 111.799789,1.95194662 114.071075,1.95194662 L123.928665,1.95194662 C126.20008,1.95194662 128.048053,3.79991956 128.048053,6.07120465 L128.048053,15.9287954 L128.048184,15.9287954 Z M119,5.5 C115.967254,5.5 113.5,7.96731096 113.5,11.0001263 C113.5,14.0328153 115.967254,16.5 119,16.5 C122.032746,16.5 124.5,14.0328153 124.5,11.0001263 C124.5,7.96731096 122.032746,5.5 119,5.5 Z M119,14.6060213 C117.011627,14.6060213 115.393809,12.9884188 115.393809,11 C115.393809,9.01145494 117.011501,7.39372618 119,7.39372618 C120.988499,7.39372618 122.606191,9.01145494 122.606191,11 C122.606191,12.9884188 120.988373,14.6060213 119,14.6060213 Z M124.5,4.125 C124.13875,4.125 123.783875,4.27125 123.52875,4.5275 C123.272375,4.7825 123.125,5.1375 123.125,5.5 C123.125,5.861375 123.2725,6.21625 123.52875,6.4725 C123.78375,6.7275 124.13875,6.875 124.5,6.875 C124.8625,6.875 125.21625,6.7275 125.4725,6.4725 C125.72875,6.21625 125.875,5.86125 125.875,5.5 C125.875,5.1375 125.72875,4.7825 125.4725,4.5275 C125.2175,4.27125 124.8625,4.125 124.5,4.125 Z" id="instagram"></path>
                </g>
            </g>
        </g>
    </g>
</svg>