<svg xmlns="http://www.w3.org/2000/svg" xmlns:xlink="http://www.w3.org/1999/xlink" viewBox="0 0 219 72">
  <defs>
    <path id="logoImage" d="M0 0h72v72H0z"/>
  </defs>
  <g fill="none" fill-rule="evenodd">
    <path fill="#000" fill-rule="nonzero" d="M91 43.312c0-.876.155-1.704.465-2.485.31-.78.736-1.454 1.281-2.02a5.963 5.963 0 0 1 1.987-1.346 6.374 6.374 0 0 1 2.524-.498c1.037 0 1.962.177 2.776.53.813.355 1.47.84 1.97 1.457.5.616.878 1.319 1.136 2.107.257.788.386 1.638.386 2.55 0 .387-.008.68-.023.876h-8.305c.172.65.491 1.144.957 1.484.467.339 1.043.509 1.73.509.97 0 1.888-.413 2.753-1.237l2.407 1.948c-1.321 1.65-3.12 2.474-5.395 2.474-1.291 0-2.44-.263-3.448-.788a5.753 5.753 0 0 1-2.356-2.233c-.563-.963-.845-2.073-.845-3.328zm4.13-1.007h4.31c-.083-.679-.314-1.215-.694-1.61-.381-.393-.866-.59-1.456-.59-.56 0-1.031.198-1.415.596-.385.398-.633.932-.745 1.604zm9.302 5.539l1.634-2.583c1.432.926 2.854 1.39 4.264 1.39.731 0 1.097-.23 1.097-.69 0-.219-.15-.4-.448-.542-.298-.142-.813-.308-1.544-.498a22.068 22.068 0 0 1-1.41-.416 7.59 7.59 0 0 1-1.187-.525 3.874 3.874 0 0 1-.968-.712 3.036 3.036 0 0 1-.599-.963 3.442 3.442 0 0 1-.235-1.303c0-1.262.459-2.246 1.377-2.95.917-.704 2.115-1.056 3.593-1.056.91 0 1.813.124 2.708.372a9.03 9.03 0 0 1 2.407 1.04l-1.489 2.682a10.868 10.868 0 0 0-1.947-.816c-.657-.2-1.232-.3-1.724-.3-.329 0-.578.054-.75.163a.517.517 0 0 0-.258.46c0 .22.148.4.443.542.294.142.819.323 1.572.542.552.153 1.022.3 1.41.438.389.138.784.317 1.187.536.403.22.726.456.968.712.243.255.442.57.599.947.157.375.235.797.235 1.264 0 1.306-.455 2.31-1.366 3.01-.91.701-2.141 1.051-3.693 1.051-2.216 0-4.175-.598-5.876-1.795zm12.715-11.702V33h4.544v3.142h-4.544zm.1 13.224v-12.13h4.354v12.13h-4.354zm6.313-6.744a6.2 6.2 0 0 1 .437-2.348c.29-.719.682-1.317 1.175-1.795a5.349 5.349 0 0 1 1.713-1.117 5.346 5.346 0 0 1 2.048-.4c.858 0 1.587.149 2.188.444.6.296 1.17.717 1.707 1.264v-1.434h4.354v9.218c0 2.182-.534 3.795-1.6 4.838-1.165 1.139-2.985 1.708-5.463 1.708-2.29 0-4.361-.463-6.212-1.39l1.4-2.825c1.402.76 2.846 1.139 4.331 1.139 1.082 0 1.895-.254 2.44-.76.545-.508.817-1.247.817-2.218v-.47a6.02 6.02 0 0 1-1.662 1.33c-.608.324-1.33.487-2.166.487-1.567 0-2.876-.516-3.929-1.55-1.052-1.032-1.578-2.406-1.578-4.12zm4.265.066c0 .671.238 1.228.716 1.67.478.44 1.09.662 1.836.662.731 0 1.334-.227 1.807-.679.474-.452.711-1.025.711-1.719 0-.671-.237-1.228-.71-1.67-.474-.44-1.077-.661-1.808-.661-.746 0-1.358.226-1.836.678-.478.453-.716 1.026-.716 1.719zm11.685 6.678v-12.13h4.365v1.708c1.06-1.32 2.295-1.981 3.705-1.981 1.314 0 2.345.398 3.095 1.193s1.125 1.887 1.125 3.273v7.937h-4.354v-6.569c0-.649-.159-1.15-.476-1.505-.317-.354-.74-.53-1.27-.53-.545 0-.985.178-1.321.536-.336.357-.504.857-.504 1.5v6.568h-4.365zm14.025-6.054c0-.876.155-1.704.464-2.485.31-.78.737-1.454 1.282-2.02a5.963 5.963 0 0 1 1.987-1.346 6.374 6.374 0 0 1 2.524-.498c1.037 0 1.962.177 2.776.53.813.355 1.47.84 1.97 1.457.5.616.878 1.319 1.136 2.107.257.788.386 1.638.386 2.55 0 .387-.008.68-.023.876h-8.305c.172.65.49 1.144.957 1.484.467.339 1.043.509 1.73.509.97 0 1.887-.413 2.753-1.237l2.406 1.948c-1.32 1.65-3.119 2.474-5.395 2.474-1.29 0-2.44-.263-3.447-.788a5.753 5.753 0 0 1-2.356-2.233c-.563-.963-.845-2.073-.845-3.328zm4.13-1.007h4.31c-.083-.679-.314-1.215-.695-1.61-.38-.393-.865-.59-1.455-.59-.56 0-1.031.198-1.416.596-.384.398-.632.932-.744 1.604zm10.242 7.06V37.237h4.365v2.442c.746-1.76 1.977-2.639 3.693-2.639h.224v4.478h-.369c-2.365 0-3.548 1.36-3.548 4.083v3.766h-4.365zm8.137 0v-4.367h4.544v4.368h-4.544zm10.832 0V33.669h4.477v15.698h-4.477zm10.522-16.004l.156.241c-.373 1.438-1.03 3.186-1.97 5.244h-2.45c.514-2.16.887-3.989 1.118-5.485h3.146zm1.59 16.005v-12.13h4.364V38.9c1.038-1.291 2.265-1.937 3.683-1.937.82 0 1.54.171 2.16.514.62.343 1.093.832 1.422 1.467.574-.65 1.192-1.142 1.852-1.478.66-.335 1.423-.503 2.289-.503 1.328 0 2.367.388 3.117 1.166.75.777 1.125 1.87 1.125 3.278v7.959h-4.354v-6.59c0-.65-.151-1.148-.453-1.495-.303-.346-.715-.52-1.237-.52-.53 0-.96.176-1.293.526-.332.35-.498.846-.498 1.489v6.59h-4.354v-6.59c0-.65-.153-1.148-.459-1.495-.306-.346-.72-.52-1.242-.52-.53 0-.956.176-1.276.526-.321.35-.482.846-.482 1.489v6.59h-4.365zM64 50V22h10.557c2.405 0 4.581.342 6.528 1.025 1.947.684 3.57 1.64 4.868 2.87a12.555 12.555 0 0 1 2.997 4.403c.7 1.706 1.05 3.58 1.05 5.624 0 2.018-.353 3.886-1.06 5.604a12.893 12.893 0 0 1-3.025 4.461c-1.311 1.257-2.953 2.24-4.925 2.949-1.973.71-4.168 1.064-6.586 1.064H64zm7.579-6.873h3.092c2.304 0 4.136-.628 5.498-1.884 1.362-1.256 2.042-3.017 2.042-5.282 0-2.213-.684-3.957-2.052-5.233-1.368-1.276-3.197-1.913-5.488-1.913H71.58v14.312z"/>
    <path fill="#000" fill-rule="nonzero" d="M0 0h72v72H0z"/>
    <mask id="logoImageB" fill="#fff">
      <use xlink:href="#logoImage"/>
    </mask>
    <path fill="#FFF" fill-rule="nonzero" d="M5.93 37.425V22.024h7.67v15.248c0 1.926.445 3.38 1.333 4.363.888.982 2.12 1.473 3.693 1.473s2.804-.472 3.693-1.416c.888-.944 1.332-2.353 1.332-4.228v-15.44h7.69v15.21c0 2.181-.298 4.088-.894 5.72-.597 1.633-1.46 2.96-2.59 3.98-1.129 1.02-2.47 1.783-4.025 2.287-1.555.504-3.315.755-5.282.755-3.998 0-7.1-1.042-9.308-3.128-2.209-2.085-3.313-5.226-3.313-9.423zm27.952 12.551l9.44-14.21-9.055-13.742h8.786l4.883 7.875 4.921-7.875h8.575l-9.055 13.664 9.458 14.288H53.05l-5.287-8.42-5.306 8.42h-8.575zm30.494 0V22.024H72v27.952h-7.624z" mask="url(#logoImageB)"/>
  </g>
</svg>
