<svg xmlns="http://www.w3.org/2000/svg" viewBox="0 0 16 16">
  <path fill="#B2B2B2" d="M15.61 9.117a.56.56 0 0 0-.47.103 5.997 5.997 0 0 1-1.82 1.068c-.635.247-1.33.37-2.067.37a6.004 6.004 0 0 1-4.256-1.767 6.054 6.054 0 0 1-1.76-4.273c0-.699.123-1.377.328-1.993A5.523 5.523 0 0 1 6.547.858a.526.526 0 0 0-.082-.74.562.562 0 0 0-.47-.102 8.254 8.254 0 0 0-4.338 2.917A8.127 8.127 0 0 0 0 7.864c0 2.24.9 4.273 2.373 5.753A8.02 8.02 0 0 0 8.102 16a8.104 8.104 0 0 0 7.877-6.246.499.499 0 0 0-.368-.637z"/>
</svg>
