<svg xmlns="http://www.w3.org/2000/svg" viewBox="0 0 18 18">
  <path fill="#737373" d="M12.166 5.798a4.432 4.432 0 0 1 1.331 3.184 4.53 4.53 0 0 1-1.33 3.184 4.432 4.432 0 0 1-3.185 1.331 4.53 4.53 0 0 1-3.184-1.33 4.53 4.53 0 0 1-1.33-3.185 4.53 4.53 0 0 1 1.33-3.184 4.432 4.432 0 0 1 3.184-1.33 4.53 4.53 0 0 1 3.184 1.33zM8.982 3.065a.63.63 0 0 1-.618-.617V.618A.63.63 0 0 1 8.982 0 .63.63 0 0 1 9.6.618v1.83a.63.63 0 0 1-.618.617zM14.044 4.8c-.262.238-.642.238-.856 0a.602.602 0 0 1 0-.855l1.307-1.307a.602.602 0 0 1 .855 0 .602.602 0 0 1 0 .855L14.044 4.8zm3.303 3.564a.63.63 0 0 1 .617.618.63.63 0 0 1-.617.618h-1.83a.63.63 0 0 1-.618-.618.63.63 0 0 1 .618-.618h1.83zm-3.327 4.8l1.307 1.307a.602.602 0 0 1 0 .856.602.602 0 0 1-.856 0l-1.307-1.307a.602.602 0 0 1 0-.856.602.602 0 0 1 .856 0zM8.982 14.9a.63.63 0 0 1 .618.618v1.83a.63.63 0 0 1-.618.617.63.63 0 0 1-.618-.617v-1.83a.63.63 0 0 1 .618-.618zm-5.061-1.735c.261-.237.641-.237.855 0a.602.602 0 0 1 0 .856L3.47 15.327a.602.602 0 0 1-.855 0 .602.602 0 0 1 0-.856l1.307-1.307zm-.856-4.182a.63.63 0 0 1-.617.618H.618A.63.63 0 0 1 0 8.982a.63.63 0 0 1 .618-.618h1.83a.63.63 0 0 1 .617.618zM3.921 4.8L2.614 3.493a.602.602 0 0 1 0-.855.602.602 0 0 1 .855 0l1.307 1.307a.602.602 0 0 1 0 .855.602.602 0 0 1-.855 0z"/>
</svg>
