<?xml version="1.0" encoding="UTF-8"?>
<svg width="28px" height="22px" viewBox="0 0 28 22" version="1.1" xmlns="http://www.w3.org/2000/svg" xmlns:xlink="http://www.w3.org/1999/xlink">
    <!-- Generator: Sketch 47.1 (45422) - http://www.bohemiancoding.com/sketch -->
    <title>twitter</title>
    <desc>Created with Sketch.</desc>
    <defs></defs>
    <g id="Design" stroke="none" stroke-width="1" fill="none" fill-rule="evenodd">
        <g id="Main-Page-White-(Desktop)" transform="translate(-1450.000000, -923.000000)" fill="#FFFFFF">
            <g id="Footer" transform="translate(-1.000000, 605.000000)">
                <g id="Social" transform="translate(1293.000000, 318.000000)">
                    <path d="M186,2.61258307 C184.898544,3.0710087 183.796653,3.35728738 182.695633,3.47226298 C183.939268,2.75034282 184.780352,1.73054093 185.218667,0.412857321 C184.08123,1.06579212 182.867252,1.51261471 181.576296,1.75332509 C180.439078,0.584582338 179.041705,0 177.383307,0 C175.796217,0 174.443112,0.541334637 173.323557,1.62421488 C172.20422,2.70709512 171.64466,4.01612919 171.64466,5.55152805 C171.64466,5.96396345 171.691981,6.38800188 171.78684,6.82343239 C169.441531,6.70887872 167.241455,6.13885293 165.186393,5.11335501 C163.131331,4.08764612 161.387232,2.72122973 159.954097,1.01389488 C159.432917,1.87315286 159.172327,2.80709224 159.172327,3.81550205 C159.172327,4.76652954 159.40326,5.6489936 159.865344,6.46247231 C160.327209,7.27595102 160.949136,7.93479282 161.730906,8.43899773 C160.806956,8.40461053 159.942321,8.16959619 159.137,7.73416568 L159.137,7.80294008 C159.137,9.14361881 159.572262,10.3208001 160.442785,11.3351169 C161.313308,12.3494338 162.411928,12.988023 163.738429,13.2515175 C163.241018,13.3774632 162.737502,13.4405416 162.228316,13.4405416 C161.896636,13.4405416 161.5353,13.4118504 161.144524,13.3548901 C161.511748,14.4662505 162.186883,15.3799373 163.169929,16.0961614 C164.152974,16.8125965 165.266423,17.1817842 166.510058,17.2049903 C164.425557,18.7859574 162.05081,19.576652 159.385815,19.576652 C158.876411,19.576652 158.414545,19.5540788 158,19.5080886 C160.664995,21.1694332 163.602355,22 166.812299,22 C168.849479,22 170.762362,21.6879837 172.55051,21.0635291 C174.339312,20.4390744 175.867088,19.6026006 177.134493,18.5538966 C178.401679,17.5056145 179.494412,16.2995311 180.412255,14.9358572 C181.330099,13.5723943 182.013956,12.1488066 182.464264,10.6648831 C182.914354,9.18074854 183.139399,7.69429341 183.139399,6.20446286 C183.139399,5.88358601 183.133511,5.6430866 183.121518,5.4825427 C184.246961,4.69227007 185.206455,3.73533558 186,2.61258307 L186,2.61258307 Z" id="twitter"></path>
                </g>
            </g>
        </g>
    </g>
</svg>