<svg xmlns="http://www.w3.org/2000/svg" viewBox="0 0 46 40">
  <g fill="none" fill-rule="evenodd" transform="translate(.647)">
    <path fill="#FFF" fill-rule="nonzero" d="M37.403 1.714c3.949 0 7.162 3.21 7.162 7.155 0 3.946-3.213 7.155-7.163 7.155a7.2 7.2 0 0 1-.795-.047v11.971c0 1.604-1.103 3.46-2.51 4.226L20.78 39.432c-.694.378-1.585.568-2.475.568-.89 0-1.782-.19-2.476-.568L2.51 32.174C1.102 31.407 0 29.55 0 27.944V12.055c0-1.606 1.102-3.464 2.51-4.23L15.827.567c1.388-.757 3.565-.755 4.956.003l10.042 5.472a7.171 7.171 0 0 1 6.577-4.328z"/>
    <ellipse cx="37.166" cy="9.217" fill="#368DE3" rx="7.834" ry="7.826"/>
    <path fill="#FFF" fill-rule="nonzero" d="M37.166 5.74c-1.296 0-2.35.935-2.35 2.086 0 .536.236 1.021.611 1.391-.375.37-.61.855-.61 1.392 0 1.15 1.053 2.087 2.35 2.087 1.295 0 2.35-.937 2.35-2.087 0-.537-.236-1.022-.612-1.392.376-.37.611-.854.611-1.39 0-1.152-1.054-2.088-2.35-2.088zm0 1.39c.432 0 .784.312.784.696 0 .384-.352.696-.784.696-.431 0-.783-.312-.783-.696 0-.384.352-.696.783-.696zm0 4.174c-.431 0-.783-.312-.783-.695 0-.384.352-.696.783-.696.432 0 .784.312.784.696 0 .383-.352.695-.784.695z"/>
    <path fill="#000" fill-rule="nonzero" d="M23.826 14.434h3.99V27.95h-3.99V14.434zm-5.585 7.453v-7.453h3.99v7.453c0 3.562-3.043 6.46-6.782 6.46-3.74 0-6.782-2.898-6.782-6.46v-7.453h3.99v7.453c0 1.324 1.304 2.485 2.792 2.485 1.487 0 2.792-1.161 2.792-2.485z"/>
  </g>
</svg>
